<?xml version="1.0" encoding="UTF-8" standalone="no"?><svg xmlns="http://www.w3.org/2000/svg" x="0" y="0" viewBox="0 0 22 10"><style>circle{stroke-width:0.1;}.f0{fill:#181818;}.f1{fill:#aaa;}.f2{fill:#7f7f7f;}.f3{fill:red;}.s0{stroke:#181818;}.s1{stroke:#aaa;}.s2{stroke:#7f7f7f;}.s3{stroke:red;}</style><g class="f1 s1"><circle cx="5" cy="5" r="4.75"/><circle cx="2.08" cy="2.08" r="1.48"/><circle cx="2.08" cy="7.91" r="1.48"/><circle cx="7.91" cy="2.08" r="1.48"/><circle cx="7.91" cy="7.91" r="1.48"/></g><g class="f0 s0"><circle cx="2.08" cy="2.08" r="1.39"/><circle cx="2.08" cy="7.91" r="1.39"/><circle cx="7.91" cy="2.08" r="1.39"/><circle cx="7.91" cy="7.91" r="1.39"/><circle cx="5" cy="5" r="4.65"/></g><circle class="f1 s1" cx="2.08" cy="2.08" r="0.95"/><g class="f0 s0"><path d="M 1.58 2.96 L 2.01 2.51 L 2.01 2.34 L 2.08 2.08 L 1.9 2.28 L 1.75 2.36 Z" stroke-width="0.02" /><circle cx="2.08" cy="2.08" r="0.16"/></g><g class="f1 s1"><circle cx="2.08" cy="2.08" r="0.12"/><circle cx="2.7" cy="1.01" r="0.04"/><circle cx="3.15" cy="1.46" r="0.04"/><circle cx="3.32" cy="2.08" r="0.04"/><circle cx="3.15" cy="2.7" r="0.04"/><circle cx="2.7" cy="3.15" r="0.04"/><circle cx="2.08" cy="3.32" r="0.04"/><circle cx="1.46" cy="3.15" r="0.04"/><circle cx="1.01" cy="2.7" r="0.04"/><circle cx="0.85" cy="2.08" r="0.04"/><circle cx="1.01" cy="1.46" r="0.04"/><circle cx="1.46" cy="1.01" r="0.04"/></g><circle class="f3 s3" cx="2.08" cy="0.85" r="0.06"/><g class="f2 s2"><circle cx="3.54" cy="3.54" r="0.36"/><circle cx="3.54" cy="3.54" r="0.25"/></g><circle class="f1 s1" cx="2.08" cy="5" r="0.95"/><g class="f0 s0"><path d="M 1.21 4.49 L 1.65 4.92 L 1.83 4.92 L 2.08 5 L 1.89 4.81 L 1.8 4.66 Z" stroke-width="0.02" /><circle cx="2.08" cy="5" r="0.16"/></g><g class="f1 s1"><circle cx="2.08" cy="5" r="0.12"/><circle cx="2.7" cy="3.92" r="0.04"/><circle cx="3.15" cy="4.38" r="0.04"/><circle cx="3.32" cy="5" r="0.04"/><circle cx="3.15" cy="5.61" r="0.04"/><circle cx="2.7" cy="6.07" r="0.04"/><circle cx="2.08" cy="6.23" r="0.04"/><circle cx="1.46" cy="6.07" r="0.04"/><circle cx="1.01" cy="5.61" r="0.04"/><circle cx="0.85" cy="5" r="0.04"/><circle cx="1.01" cy="4.38" r="0.04"/><circle cx="1.46" cy="3.92" r="0.04"/></g><circle class="f3 s3" cx="2.08" cy="3.76" r="0.06"/><circle class="f2 s2" cx="3.54" cy="6.45" r="0.36"/><circle class="f0 s0" cx="3.54" cy="6.45" r="0.25"/><circle class="f1 s1" cx="2.08" cy="7.91" r="0.95"/><g class="f0 s0"><path d="M 2.96 7.4 L 2.36 7.57 L 2.28 7.73 L 2.08 7.91 L 2.34 7.83 L 2.51 7.83 Z" stroke-width="0.02" /><circle cx="2.08" cy="7.91" r="0.16"/></g><g class="f1 s1"><circle cx="2.08" cy="7.91" r="0.12"/><circle cx="2.7" cy="6.84" r="0.04"/><circle cx="3.15" cy="7.29" r="0.04"/><circle cx="3.32" cy="7.91" r="0.04"/><circle cx="3.15" cy="8.53" r="0.04"/><circle cx="2.7" cy="8.98" r="0.04"/><circle cx="2.08" cy="9.14" r="0.04"/><circle cx="1.46" cy="8.98" r="0.04"/><circle cx="1.01" cy="8.53" r="0.04"/><circle cx="0.85" cy="7.91" r="0.04"/><circle cx="1.01" cy="7.29" r="0.04"/><circle cx="1.46" cy="6.84" r="0.04"/></g><circle class="f3 s3" cx="2.08" cy="6.67" r="0.06"/><circle class="f1 s1" cx="5" cy="2.08" r="0.95"/><g class="f0 s0"><path d="M 4.49 2.96 L 4.92 2.51 L 4.92 2.34 L 5 2.08 L 4.81 2.28 L 4.66 2.36 Z" stroke-width="0.02" /><circle cx="5" cy="2.08" r="0.16"/></g><g class="f1 s1"><circle cx="5" cy="2.08" r="0.12"/><circle cx="5.61" cy="1.01" r="0.04"/><circle cx="6.07" cy="1.46" r="0.04"/><circle cx="6.23" cy="2.08" r="0.04"/><circle cx="6.07" cy="2.7" r="0.04"/><circle cx="5.61" cy="3.15" r="0.04"/><circle cx="5" cy="3.32" r="0.04"/><circle cx="4.38" cy="3.15" r="0.04"/><circle cx="3.92" cy="2.7" r="0.04"/><circle cx="3.76" cy="2.08" r="0.04"/><circle cx="3.92" cy="1.46" r="0.04"/><circle cx="4.38" cy="1.01" r="0.04"/></g><circle class="f3 s3" cx="5" cy="0.85" r="0.06"/><g class="f2 s2"><circle cx="6.45" cy="3.54" r="0.36"/><circle cx="6.45" cy="3.54" r="0.25"/></g><circle class="f1 s1" cx="5" cy="5" r="0.95"/><g class="f0 s0"><path d="M 3.98 5 L 4.59 5.15 L 4.74 5.06 L 5 5 L 4.74 4.93 L 4.59 4.84 Z" stroke-width="0.02" /><circle cx="5" cy="5" r="0.16"/></g><g class="f1 s1"><circle cx="5" cy="5" r="0.12"/><circle cx="5.61" cy="3.92" r="0.04"/><circle cx="6.07" cy="4.38" r="0.04"/><circle cx="6.23" cy="5" r="0.04"/><circle cx="6.07" cy="5.61" r="0.04"/><circle cx="5.61" cy="6.07" r="0.04"/><circle cx="5" cy="6.23" r="0.04"/><circle cx="4.38" cy="6.07" r="0.04"/><circle cx="3.92" cy="5.61" r="0.04"/><circle cx="3.76" cy="5" r="0.04"/><circle cx="3.92" cy="4.38" r="0.04"/><circle cx="4.38" cy="3.92" r="0.04"/></g><circle class="f3 s3" cx="5" cy="3.76" r="0.06"/><circle class="f2 s2" cx="6.45" cy="6.45" r="0.36"/><circle class="f0 s0" cx="6.45" cy="6.45" r="0.25"/><circle class="f1 s1" cx="5" cy="7.91" r="0.95"/><g class="f0 s0"><path d="M 4.49 8.78 L 4.92 8.34 L 4.92 8.16 L 5 7.91 L 4.81 8.1 L 4.66 8.19 Z" stroke-width="0.02" /><circle cx="5" cy="7.91" r="0.16"/></g><g class="f1 s1"><circle cx="5" cy="7.91" r="0.12"/><circle cx="5.61" cy="6.84" r="0.04"/><circle cx="6.07" cy="7.29" r="0.04"/><circle cx="6.23" cy="7.91" r="0.04"/><circle cx="6.07" cy="8.53" r="0.04"/><circle cx="5.61" cy="8.98" r="0.04"/><circle cx="5" cy="9.14" r="0.04"/><circle cx="4.38" cy="8.98" r="0.04"/><circle cx="3.92" cy="8.53" r="0.04"/><circle cx="3.76" cy="7.91" r="0.04"/><circle cx="3.92" cy="7.29" r="0.04"/><circle cx="4.38" cy="6.84" r="0.04"/></g><circle class="f3 s3" cx="5" cy="6.67" r="0.06"/><circle class="f1 s1" cx="7.91" cy="2.08" r="0.95"/><g class="f0 s0"><path d="M 8.41 2.96 L 8.24 2.36 L 8.09 2.28 L 7.91 2.08 L 7.98 2.34 L 7.98 2.51 Z" stroke-width="0.02" /><circle cx="7.91" cy="2.08" r="0.16"/></g><g class="f1 s1"><circle cx="7.91" cy="2.08" r="0.12"/><circle cx="8.53" cy="1.01" r="0.04"/><circle cx="8.98" cy="1.46" r="0.04"/><circle cx="9.14" cy="2.08" r="0.04"/><circle cx="8.98" cy="2.7" r="0.04"/><circle cx="8.53" cy="3.15" r="0.04"/><circle cx="7.91" cy="3.32" r="0.04"/><circle cx="7.29" cy="3.15" r="0.04"/><circle cx="6.84" cy="2.7" r="0.04"/><circle cx="6.67" cy="2.08" r="0.04"/><circle cx="6.84" cy="1.46" r="0.04"/><circle cx="7.29" cy="1.01" r="0.04"/></g><circle class="f3 s3" cx="7.91" cy="0.85" r="0.06"/><circle class="f1 s1" cx="7.91" cy="5" r="0.95"/><g class="f0 s0"><path d="M 8.41 5.87 L 8.24 5.27 L 8.09 5.19 L 7.91 5 L 7.98 5.25 L 7.98 5.43 Z" stroke-width="0.02" /><circle cx="7.91" cy="5" r="0.16"/></g><g class="f1 s1"><circle cx="7.91" cy="5" r="0.12"/><circle cx="8.53" cy="3.92" r="0.04"/><circle cx="8.98" cy="4.38" r="0.04"/><circle cx="9.14" cy="5" r="0.04"/><circle cx="8.98" cy="5.61" r="0.04"/><circle cx="8.53" cy="6.07" r="0.04"/><circle cx="7.91" cy="6.23" r="0.04"/><circle cx="7.29" cy="6.07" r="0.04"/><circle cx="6.84" cy="5.61" r="0.04"/><circle cx="6.67" cy="5" r="0.04"/><circle cx="6.84" cy="4.38" r="0.04"/><circle cx="7.29" cy="3.92" r="0.04"/></g><circle class="f3 s3" cx="7.91" cy="3.76" r="0.06"/><circle class="f1 s1" cx="7.91" cy="7.91" r="0.95"/><g class="f0 s0"><path d="M 6.9 7.91 L 7.5 8.06 L 7.65 7.97 L 7.91 7.91 L 7.65 7.85 L 7.5 7.76 Z" stroke-width="0.02" /><circle cx="7.91" cy="7.91" r="0.16"/></g><g class="f1 s1"><circle cx="7.91" cy="7.91" r="0.12"/><circle cx="8.53" cy="6.84" r="0.04"/><circle cx="8.98" cy="7.29" r="0.04"/><circle cx="9.14" cy="7.91" r="0.04"/><circle cx="8.98" cy="8.53" r="0.04"/><circle cx="8.53" cy="8.98" r="0.04"/><circle cx="7.91" cy="9.14" r="0.04"/><circle cx="7.29" cy="8.98" r="0.04"/><circle cx="6.84" cy="8.53" r="0.04"/><circle cx="6.67" cy="7.91" r="0.04"/><circle cx="6.84" cy="7.29" r="0.04"/><circle cx="7.29" cy="6.84" r="0.04"/></g><circle class="f3 s3" cx="7.91" cy="6.67" r="0.06"/><g class="f0 s0"><circle cx="17" cy="5" r="4.75"/><circle cx="14.08" cy="2.08" r="1.48"/><circle cx="14.08" cy="7.91" r="1.48"/><circle cx="19.91" cy="2.08" r="1.48"/><circle cx="19.91" cy="7.91" r="1.48"/></g><g class="f1 s1"><circle cx="14.08" cy="2.08" r="1.39"/><circle cx="14.08" cy="7.91" r="1.39"/><circle cx="19.91" cy="2.08" r="1.39"/><circle cx="19.91" cy="7.91" r="1.39"/><circle cx="17" cy="5" r="4.65"/></g><circle class="f0 s0" cx="14.08" cy="2.08" r="0.95"/><g class="f1 s1"><path d="M 13.58 2.96 L 14.01 2.51 L 14.01 2.34 L 14.08 2.08 L 13.9 2.28 L 13.75 2.36 Z" stroke-width="0.02" /><circle cx="14.08" cy="2.08" r="0.16"/></g><g class="f0 s0"><circle cx="14.08" cy="2.08" r="0.12"/><circle cx="14.7" cy="1.01" r="0.04"/><circle cx="15.15" cy="1.46" r="0.04"/><circle cx="15.32" cy="2.08" r="0.04"/><circle cx="15.15" cy="2.7" r="0.04"/><circle cx="14.7" cy="3.15" r="0.04"/><circle cx="14.08" cy="3.32" r="0.04"/><circle cx="13.46" cy="3.15" r="0.04"/><circle cx="13.01" cy="2.7" r="0.04"/><circle cx="12.85" cy="2.08" r="0.04"/><circle cx="13.01" cy="1.46" r="0.04"/><circle cx="13.46" cy="1.01" r="0.04"/></g><circle class="f3 s3" cx="14.08" cy="0.85" r="0.06"/><circle class="f2 s2" cx="15.54" cy="3.54" r="0.36"/><g class="f0 s0"><circle cx="15.54" cy="3.54" r="0.25"/><circle cx="14.08" cy="5" r="0.95"/></g><g class="f1 s1"><path d="M 13.07 5 L 13.67 5.15 L 13.82 5.06 L 14.08 5 L 13.82 4.93 L 13.67 4.84 Z" stroke-width="0.02" /><circle cx="14.08" cy="5" r="0.16"/></g><g class="f0 s0"><circle cx="14.08" cy="5" r="0.12"/><circle cx="14.7" cy="3.92" r="0.04"/><circle cx="15.15" cy="4.38" r="0.04"/><circle cx="15.32" cy="5" r="0.04"/><circle cx="15.15" cy="5.61" r="0.04"/><circle cx="14.7" cy="6.07" r="0.04"/><circle cx="14.08" cy="6.23" r="0.04"/><circle cx="13.46" cy="6.07" r="0.04"/><circle cx="13.01" cy="5.61" r="0.04"/><circle cx="12.85" cy="5" r="0.04"/><circle cx="13.01" cy="4.38" r="0.04"/><circle cx="13.46" cy="3.92" r="0.04"/></g><circle class="f3 s3" cx="14.08" cy="3.76" r="0.06"/><g class="f2 s2"><circle cx="15.54" cy="6.45" r="0.36"/><circle cx="15.54" cy="6.45" r="0.25"/></g><circle class="f0 s0" cx="14.08" cy="7.91" r="0.95"/><g class="f1 s1"><path d="M 15.09 7.91 L 14.49 7.76 L 14.34 7.85 L 14.08 7.91 L 14.34 7.97 L 14.49 8.06 Z" stroke-width="0.02" /><circle cx="14.08" cy="7.91" r="0.16"/></g><g class="f0 s0"><circle cx="14.08" cy="7.91" r="0.12"/><circle cx="14.7" cy="6.84" r="0.04"/><circle cx="15.15" cy="7.29" r="0.04"/><circle cx="15.32" cy="7.91" r="0.04"/><circle cx="15.15" cy="8.53" r="0.04"/><circle cx="14.7" cy="8.98" r="0.04"/><circle cx="14.08" cy="9.14" r="0.04"/><circle cx="13.46" cy="8.98" r="0.04"/><circle cx="13.01" cy="8.53" r="0.04"/><circle cx="12.85" cy="7.91" r="0.04"/><circle cx="13.01" cy="7.29" r="0.04"/><circle cx="13.46" cy="6.84" r="0.04"/></g><circle class="f3 s3" cx="14.08" cy="6.67" r="0.06"/><circle class="f0 s0" cx="17" cy="2.08" r="0.95"/><g class="f1 s1"><path d="M 18.01 2.08 L 17.4 1.93 L 17.25 2.02 L 17 2.08 L 17.25 2.14 L 17.4 2.23 Z" stroke-width="0.02" /><circle cx="17" cy="2.08" r="0.16"/></g><g class="f0 s0"><circle cx="17" cy="2.08" r="0.12"/><circle cx="17.61" cy="1.01" r="0.04"/><circle cx="18.07" cy="1.46" r="0.04"/><circle cx="18.23" cy="2.08" r="0.04"/><circle cx="18.07" cy="2.7" r="0.04"/><circle cx="17.61" cy="3.15" r="0.04"/><circle cx="17" cy="3.32" r="0.04"/><circle cx="16.38" cy="3.15" r="0.04"/><circle cx="15.92" cy="2.7" r="0.04"/><circle cx="15.76" cy="2.08" r="0.04"/><circle cx="15.92" cy="1.46" r="0.04"/><circle cx="16.38" cy="1.01" r="0.04"/></g><circle class="f3 s3" cx="17" cy="0.85" r="0.06"/><circle class="f2 s2" cx="18.45" cy="3.54" r="0.36"/><g class="f0 s0"><circle cx="18.45" cy="3.54" r="0.25"/><circle cx="17" cy="5" r="0.95"/></g><g class="f1 s1"><path d="M 17 6.01 L 17.15 5.4 L 17.06 5.25 L 17 5 L 16.93 5.25 L 16.84 5.4 Z" stroke-width="0.02" /><circle cx="17" cy="5" r="0.16"/></g><g class="f0 s0"><circle cx="17" cy="5" r="0.12"/><circle cx="17.61" cy="3.92" r="0.04"/><circle cx="18.07" cy="4.38" r="0.04"/><circle cx="18.23" cy="5" r="0.04"/><circle cx="18.07" cy="5.61" r="0.04"/><circle cx="17.61" cy="6.07" r="0.04"/><circle cx="17" cy="6.23" r="0.04"/><circle cx="16.38" cy="6.07" r="0.04"/><circle cx="15.92" cy="5.61" r="0.04"/><circle cx="15.76" cy="5" r="0.04"/><circle cx="15.92" cy="4.38" r="0.04"/><circle cx="16.38" cy="3.92" r="0.04"/></g><circle class="f3 s3" cx="17" cy="3.76" r="0.06"/><g class="f2 s2"><circle cx="18.45" cy="6.45" r="0.36"/><circle cx="18.45" cy="6.45" r="0.25"/></g><circle class="f0 s0" cx="17" cy="7.91" r="0.95"/><g class="f1 s1"><path d="M 16.12 8.41 L 16.72 8.24 L 16.8 8.09 L 17 7.91 L 16.74 7.98 L 16.56 7.98 Z" stroke-width="0.02" /><circle cx="17" cy="7.91" r="0.16"/></g><g class="f0 s0"><circle cx="17" cy="7.91" r="0.12"/><circle cx="17.61" cy="6.84" r="0.04"/><circle cx="18.07" cy="7.29" r="0.04"/><circle cx="18.23" cy="7.91" r="0.04"/><circle cx="18.07" cy="8.53" r="0.04"/><circle cx="17.61" cy="8.98" r="0.04"/><circle cx="17" cy="9.14" r="0.04"/><circle cx="16.38" cy="8.98" r="0.04"/><circle cx="15.92" cy="8.53" r="0.04"/><circle cx="15.76" cy="7.91" r="0.04"/><circle cx="15.92" cy="7.29" r="0.04"/><circle cx="16.38" cy="6.84" r="0.04"/></g><circle class="f3 s3" cx="17" cy="6.67" r="0.06"/><circle class="f0 s0" cx="19.91" cy="2.08" r="0.95"/><g class="f1 s1"><path d="M 20.41 2.96 L 20.24 2.36 L 20.09 2.28 L 19.91 2.08 L 19.98 2.34 L 19.98 2.51 Z" stroke-width="0.02" /><circle cx="19.91" cy="2.08" r="0.16"/></g><g class="f0 s0"><circle cx="19.91" cy="2.08" r="0.12"/><circle cx="20.53" cy="1.01" r="0.04"/><circle cx="20.98" cy="1.46" r="0.04"/><circle cx="21.14" cy="2.08" r="0.04"/><circle cx="20.98" cy="2.7" r="0.04"/><circle cx="20.53" cy="3.15" r="0.04"/><circle cx="19.91" cy="3.32" r="0.04"/><circle cx="19.29" cy="3.15" r="0.04"/><circle cx="18.84" cy="2.7" r="0.04"/><circle cx="18.67" cy="2.08" r="0.04"/><circle cx="18.84" cy="1.46" r="0.04"/><circle cx="19.29" cy="1.01" r="0.04"/></g><circle class="f3 s3" cx="19.91" cy="0.85" r="0.06"/><circle class="f0 s0" cx="19.91" cy="5" r="0.95"/><g class="f1 s1"><path d="M 20.41 5.87 L 20.24 5.27 L 20.09 5.19 L 19.91 5 L 19.98 5.25 L 19.98 5.43 Z" stroke-width="0.02" /><circle cx="19.91" cy="5" r="0.16"/></g><g class="f0 s0"><circle cx="19.91" cy="5" r="0.12"/><circle cx="20.53" cy="3.92" r="0.04"/><circle cx="20.98" cy="4.38" r="0.04"/><circle cx="21.14" cy="5" r="0.04"/><circle cx="20.98" cy="5.61" r="0.04"/><circle cx="20.53" cy="6.07" r="0.04"/><circle cx="19.91" cy="6.23" r="0.04"/><circle cx="19.29" cy="6.07" r="0.04"/><circle cx="18.84" cy="5.61" r="0.04"/><circle cx="18.67" cy="5" r="0.04"/><circle cx="18.84" cy="4.38" r="0.04"/><circle cx="19.29" cy="3.92" r="0.04"/></g><circle class="f3 s3" cx="19.91" cy="3.76" r="0.06"/><circle class="f0 s0" cx="19.91" cy="7.91" r="0.95"/><g class="f1 s1"><path d="M 19.03 7.4 L 19.48 7.83 L 19.65 7.83 L 19.91 7.91 L 19.71 7.73 L 19.63 7.57 Z" stroke-width="0.02" /><circle cx="19.91" cy="7.91" r="0.16"/></g><g class="f0 s0"><circle cx="19.91" cy="7.91" r="0.12"/><circle cx="20.53" cy="6.84" r="0.04"/><circle cx="20.98" cy="7.29" r="0.04"/><circle cx="21.14" cy="7.91" r="0.04"/><circle cx="20.98" cy="8.53" r="0.04"/><circle cx="20.53" cy="8.98" r="0.04"/><circle cx="19.91" cy="9.14" r="0.04"/><circle cx="19.29" cy="8.98" r="0.04"/><circle cx="18.84" cy="8.53" r="0.04"/><circle cx="18.67" cy="7.91" r="0.04"/><circle cx="18.84" cy="7.29" r="0.04"/><circle cx="19.29" cy="6.84" r="0.04"/></g><circle class="f3 s3" cx="19.91" cy="6.67" r="0.06"/></svg>