<?xml version="1.0" encoding="UTF-8" standalone="no"?><svg xmlns="http://www.w3.org/2000/svg" x="0" y="0" viewBox="0 0 22 10" class="YmIyYTRiZDYtMjVl"><style>.YmIyYTRiZDYtMjVl circle{stroke-width:0.1;}.YmIyYTRiZDYtMjVl .f0{fill:#181818;}.YmIyYTRiZDYtMjVl .f1{fill:#aaa;}.YmIyYTRiZDYtMjVl .f2{fill:#7f7f7f;}.YmIyYTRiZDYtMjVl .f3{fill:red;}.YmIyYTRiZDYtMjVl .s0{stroke:#181818;}.YmIyYTRiZDYtMjVl .s1{stroke:#aaa;}.YmIyYTRiZDYtMjVl .s2{stroke:#7f7f7f;}.YmIyYTRiZDYtMjVl .s3{stroke:red;}</style><g class="f1 s1"><circle cx="5" cy="5" r="4.75"/><circle cx="2.08" cy="2.08" r="1.48"/><circle cx="2.08" cy="7.91" r="1.48"/><circle cx="7.91" cy="2.08" r="1.48"/><circle cx="7.91" cy="7.91" r="1.48"/></g><g class="f0 s0"><circle cx="2.08" cy="2.08" r="1.39"/><circle cx="2.08" cy="7.91" r="1.39"/><circle cx="7.91" cy="2.08" r="1.39"/><circle cx="7.91" cy="7.91" r="1.39"/><circle cx="5" cy="5" r="4.65"/></g><circle class="f1 s1" cx="2.08" cy="2.08" r="0.95"/><g class="f0 s0"><path d="M 1.07 2.08 L 1.67 2.23 L 1.82 2.14 L 2.08 2.08 L 1.82 2.02 L 1.67 1.93 Z" stroke-width="0.02" /><circle cx="2.08" cy="2.08" r="0.16"/></g><g class="f1 s1"><circle cx="2.08" cy="2.08" r="0.12"/><circle cx="2.7" cy="1.01" r="0.04"/><circle cx="3.15" cy="1.46" r="0.04"/><circle cx="3.32" cy="2.08" r="0.04"/><circle cx="3.15" cy="2.7" r="0.04"/><circle cx="2.7" cy="3.15" r="0.04"/><circle cx="2.08" cy="3.32" r="0.04"/><circle cx="1.46" cy="3.15" r="0.04"/><circle cx="1.01" cy="2.7" r="0.04"/><circle cx="0.85" cy="2.08" r="0.04"/><circle cx="1.01" cy="1.46" r="0.04"/><circle cx="1.46" cy="1.01" r="0.04"/></g><circle class="f3 s3" cx="2.08" cy="0.85" r="0.06"/><circle class="f2 s2" cx="3.54" cy="3.54" r="0.36"/><circle class="f0 s0" cx="3.54" cy="3.54" r="0.25"/><circle class="f1 s1" cx="2.08" cy="5" r="0.95"/><g class="f0 s0"><path d="M 3.09 5 L 2.49 4.84 L 2.34 4.93 L 2.08 5 L 2.34 5.06 L 2.49 5.15 Z" stroke-width="0.02" /><circle cx="2.08" cy="5" r="0.16"/></g><g class="f1 s1"><circle cx="2.08" cy="5" r="0.12"/><circle cx="2.7" cy="3.92" r="0.04"/><circle cx="3.15" cy="4.38" r="0.04"/><circle cx="3.32" cy="5" r="0.04"/><circle cx="3.15" cy="5.61" r="0.04"/><circle cx="2.7" cy="6.07" r="0.04"/><circle cx="2.08" cy="6.23" r="0.04"/><circle cx="1.46" cy="6.07" r="0.04"/><circle cx="1.01" cy="5.61" r="0.04"/><circle cx="0.85" cy="5" r="0.04"/><circle cx="1.01" cy="4.38" r="0.04"/><circle cx="1.46" cy="3.92" r="0.04"/></g><circle class="f3 s3" cx="2.08" cy="3.76" r="0.06"/><g class="f2 s2"><circle cx="3.54" cy="6.45" r="0.36"/><circle cx="3.54" cy="6.45" r="0.25"/></g><circle class="f1 s1" cx="2.08" cy="7.91" r="0.95"/><g class="f0 s0"><path d="M 2.59 8.78 L 2.42 8.19 L 2.26 8.1 L 2.08 7.91 L 2.16 8.16 L 2.16 8.34 Z" stroke-width="0.02" /><circle cx="2.08" cy="7.91" r="0.16"/></g><g class="f1 s1"><circle cx="2.08" cy="7.91" r="0.12"/><circle cx="2.7" cy="6.84" r="0.04"/><circle cx="3.15" cy="7.29" r="0.04"/><circle cx="3.32" cy="7.91" r="0.04"/><circle cx="3.15" cy="8.53" r="0.04"/><circle cx="2.7" cy="8.98" r="0.04"/><circle cx="2.08" cy="9.14" r="0.04"/><circle cx="1.46" cy="8.98" r="0.04"/><circle cx="1.01" cy="8.53" r="0.04"/><circle cx="0.85" cy="7.91" r="0.04"/><circle cx="1.01" cy="7.29" r="0.04"/><circle cx="1.46" cy="6.84" r="0.04"/></g><circle class="f3 s3" cx="2.08" cy="6.67" r="0.06"/><circle class="f1 s1" cx="5" cy="2.08" r="0.95"/><g class="f0 s0"><path d="M 5.87 2.59 L 5.43 2.16 L 5.25 2.16 L 5 2.08 L 5.19 2.26 L 5.27 2.42 Z" stroke-width="0.02" /><circle cx="5" cy="2.08" r="0.16"/></g><g class="f1 s1"><circle cx="5" cy="2.08" r="0.12"/><circle cx="5.61" cy="1.01" r="0.04"/><circle cx="6.07" cy="1.46" r="0.04"/><circle cx="6.23" cy="2.08" r="0.04"/><circle cx="6.07" cy="2.7" r="0.04"/><circle cx="5.61" cy="3.15" r="0.04"/><circle cx="5" cy="3.32" r="0.04"/><circle cx="4.38" cy="3.15" r="0.04"/><circle cx="3.92" cy="2.7" r="0.04"/><circle cx="3.76" cy="2.08" r="0.04"/><circle cx="3.92" cy="1.46" r="0.04"/><circle cx="4.38" cy="1.01" r="0.04"/></g><circle class="f3 s3" cx="5" cy="0.85" r="0.06"/><g class="f2 s2"><circle cx="6.45" cy="3.54" r="0.36"/><circle cx="6.45" cy="3.54" r="0.25"/></g><circle class="f1 s1" cx="5" cy="5" r="0.95"/><g class="f0 s0"><path d="M 5 6.01 L 5.15 5.4 L 5.06 5.25 L 5 5 L 4.93 5.25 L 4.84 5.4 Z" stroke-width="0.02" /><circle cx="5" cy="5" r="0.16"/></g><g class="f1 s1"><circle cx="5" cy="5" r="0.12"/><circle cx="5.61" cy="3.92" r="0.04"/><circle cx="6.07" cy="4.38" r="0.04"/><circle cx="6.23" cy="5" r="0.04"/><circle cx="6.07" cy="5.61" r="0.04"/><circle cx="5.61" cy="6.07" r="0.04"/><circle cx="5" cy="6.23" r="0.04"/><circle cx="4.38" cy="6.07" r="0.04"/><circle cx="3.92" cy="5.61" r="0.04"/><circle cx="3.76" cy="5" r="0.04"/><circle cx="3.92" cy="4.38" r="0.04"/><circle cx="4.38" cy="3.92" r="0.04"/></g><circle class="f3 s3" cx="5" cy="3.76" r="0.06"/><g class="f2 s2"><circle cx="6.45" cy="6.45" r="0.36"/><circle cx="6.45" cy="6.45" r="0.25"/></g><circle class="f1 s1" cx="5" cy="7.91" r="0.95"/><g class="f0 s0"><path d="M 4.12 8.41 L 4.72 8.24 L 4.8 8.09 L 5 7.91 L 4.74 7.98 L 4.56 7.98 Z" stroke-width="0.02" /><circle cx="5" cy="7.91" r="0.16"/></g><g class="f1 s1"><circle cx="5" cy="7.91" r="0.12"/><circle cx="5.61" cy="6.84" r="0.04"/><circle cx="6.07" cy="7.29" r="0.04"/><circle cx="6.23" cy="7.91" r="0.04"/><circle cx="6.07" cy="8.53" r="0.04"/><circle cx="5.61" cy="8.98" r="0.04"/><circle cx="5" cy="9.14" r="0.04"/><circle cx="4.38" cy="8.98" r="0.04"/><circle cx="3.92" cy="8.53" r="0.04"/><circle cx="3.76" cy="7.91" r="0.04"/><circle cx="3.92" cy="7.29" r="0.04"/><circle cx="4.38" cy="6.84" r="0.04"/></g><circle class="f3 s3" cx="5" cy="6.67" r="0.06"/><circle class="f1 s1" cx="7.91" cy="2.08" r="0.95"/><g class="f0 s0"><path d="M 7.91 1.07 L 7.76 1.67 L 7.85 1.82 L 7.91 2.08 L 7.97 1.82 L 8.06 1.67 Z" stroke-width="0.02" /><circle cx="7.91" cy="2.08" r="0.16"/></g><g class="f1 s1"><circle cx="7.91" cy="2.08" r="0.12"/><circle cx="8.53" cy="1.01" r="0.04"/><circle cx="8.98" cy="1.46" r="0.04"/><circle cx="9.14" cy="2.08" r="0.04"/><circle cx="8.98" cy="2.7" r="0.04"/><circle cx="8.53" cy="3.15" r="0.04"/><circle cx="7.91" cy="3.32" r="0.04"/><circle cx="7.29" cy="3.15" r="0.04"/><circle cx="6.84" cy="2.7" r="0.04"/><circle cx="6.67" cy="2.08" r="0.04"/><circle cx="6.84" cy="1.46" r="0.04"/><circle cx="7.29" cy="1.01" r="0.04"/></g><circle class="f3 s3" cx="7.91" cy="0.85" r="0.06"/><circle class="f1 s1" cx="7.91" cy="5" r="0.95"/><g class="f0 s0"><path d="M 8.78 5.5 L 8.34 5.07 L 8.16 5.07 L 7.91 5 L 8.1 5.18 L 8.19 5.33 Z" stroke-width="0.02" /><circle cx="7.91" cy="5" r="0.16"/></g><g class="f1 s1"><circle cx="7.91" cy="5" r="0.12"/><circle cx="8.53" cy="3.92" r="0.04"/><circle cx="8.98" cy="4.38" r="0.04"/><circle cx="9.14" cy="5" r="0.04"/><circle cx="8.98" cy="5.61" r="0.04"/><circle cx="8.53" cy="6.07" r="0.04"/><circle cx="7.91" cy="6.23" r="0.04"/><circle cx="7.29" cy="6.07" r="0.04"/><circle cx="6.84" cy="5.61" r="0.04"/><circle cx="6.67" cy="5" r="0.04"/><circle cx="6.84" cy="4.38" r="0.04"/><circle cx="7.29" cy="3.92" r="0.04"/></g><circle class="f3 s3" cx="7.91" cy="3.76" r="0.06"/><circle class="f1 s1" cx="7.91" cy="7.91" r="0.95"/><g class="f0 s0"><path d="M 8.92 7.91 L 8.32 7.76 L 8.17 7.85 L 7.91 7.91 L 8.17 7.97 L 8.32 8.06 Z" stroke-width="0.02" /><circle cx="7.91" cy="7.91" r="0.16"/></g><g class="f1 s1"><circle cx="7.91" cy="7.91" r="0.12"/><circle cx="8.53" cy="6.84" r="0.04"/><circle cx="8.98" cy="7.29" r="0.04"/><circle cx="9.14" cy="7.91" r="0.04"/><circle cx="8.98" cy="8.53" r="0.04"/><circle cx="8.53" cy="8.98" r="0.04"/><circle cx="7.91" cy="9.14" r="0.04"/><circle cx="7.29" cy="8.98" r="0.04"/><circle cx="6.84" cy="8.53" r="0.04"/><circle cx="6.67" cy="7.91" r="0.04"/><circle cx="6.84" cy="7.29" r="0.04"/><circle cx="7.29" cy="6.84" r="0.04"/></g><circle class="f3 s3" cx="7.91" cy="6.67" r="0.06"/><g class="f0 s0"><circle cx="17" cy="5" r="4.75"/><circle cx="14.08" cy="2.08" r="1.48"/><circle cx="14.08" cy="7.91" r="1.48"/><circle cx="19.91" cy="2.08" r="1.48"/><circle cx="19.91" cy="7.91" r="1.48"/></g><g class="f1 s1"><circle cx="14.08" cy="2.08" r="1.39"/><circle cx="14.08" cy="7.91" r="1.39"/><circle cx="19.91" cy="2.08" r="1.39"/><circle cx="19.91" cy="7.91" r="1.39"/><circle cx="17" cy="5" r="4.65"/></g><circle class="f0 s0" cx="14.08" cy="2.08" r="0.95"/><g class="f1 s1"><path d="M 14.08 1.07 L 13.93 1.67 L 14.02 1.82 L 14.08 2.08 L 14.14 1.82 L 14.23 1.67 Z" stroke-width="0.02" /><circle cx="14.08" cy="2.08" r="0.16"/></g><g class="f0 s0"><circle cx="14.08" cy="2.08" r="0.12"/><circle cx="14.7" cy="1.01" r="0.04"/><circle cx="15.15" cy="1.46" r="0.04"/><circle cx="15.32" cy="2.08" r="0.04"/><circle cx="15.15" cy="2.7" r="0.04"/><circle cx="14.7" cy="3.15" r="0.04"/><circle cx="14.08" cy="3.32" r="0.04"/><circle cx="13.46" cy="3.15" r="0.04"/><circle cx="13.01" cy="2.7" r="0.04"/><circle cx="12.85" cy="2.08" r="0.04"/><circle cx="13.01" cy="1.46" r="0.04"/><circle cx="13.46" cy="1.01" r="0.04"/></g><circle class="f3 s3" cx="14.08" cy="0.85" r="0.06"/><circle class="f2 s2" cx="15.54" cy="3.54" r="0.36"/><g class="f0 s0"><circle cx="15.54" cy="3.54" r="0.25"/><circle cx="14.08" cy="5" r="0.95"/></g><g class="f1 s1"><path d="M 13.21 4.49 L 13.65 4.92 L 13.83 4.92 L 14.08 5 L 13.89 4.81 L 13.8 4.66 Z" stroke-width="0.02" /><circle cx="14.08" cy="5" r="0.16"/></g><g class="f0 s0"><circle cx="14.08" cy="5" r="0.12"/><circle cx="14.7" cy="3.92" r="0.04"/><circle cx="15.15" cy="4.38" r="0.04"/><circle cx="15.32" cy="5" r="0.04"/><circle cx="15.15" cy="5.61" r="0.04"/><circle cx="14.7" cy="6.07" r="0.04"/><circle cx="14.08" cy="6.23" r="0.04"/><circle cx="13.46" cy="6.07" r="0.04"/><circle cx="13.01" cy="5.61" r="0.04"/><circle cx="12.85" cy="5" r="0.04"/><circle cx="13.01" cy="4.38" r="0.04"/><circle cx="13.46" cy="3.92" r="0.04"/></g><circle class="f3 s3" cx="14.08" cy="3.76" r="0.06"/><circle class="f2 s2" cx="15.54" cy="6.45" r="0.36"/><g class="f0 s0"><circle cx="15.54" cy="6.45" r="0.25"/><circle cx="14.08" cy="7.91" r="0.95"/></g><g class="f1 s1"><path d="M 13.07 7.91 L 13.67 8.06 L 13.82 7.97 L 14.08 7.91 L 13.82 7.85 L 13.67 7.76 Z" stroke-width="0.02" /><circle cx="14.08" cy="7.91" r="0.16"/></g><g class="f0 s0"><circle cx="14.08" cy="7.91" r="0.12"/><circle cx="14.7" cy="6.84" r="0.04"/><circle cx="15.15" cy="7.29" r="0.04"/><circle cx="15.32" cy="7.91" r="0.04"/><circle cx="15.15" cy="8.53" r="0.04"/><circle cx="14.7" cy="8.98" r="0.04"/><circle cx="14.08" cy="9.14" r="0.04"/><circle cx="13.46" cy="8.98" r="0.04"/><circle cx="13.01" cy="8.53" r="0.04"/><circle cx="12.85" cy="7.91" r="0.04"/><circle cx="13.01" cy="7.29" r="0.04"/><circle cx="13.46" cy="6.84" r="0.04"/></g><circle class="f3 s3" cx="14.08" cy="6.67" r="0.06"/><circle class="f0 s0" cx="17" cy="2.08" r="0.95"/><g class="f1 s1"><path d="M 17.5 2.96 L 17.33 2.36 L 17.18 2.28 L 17 2.08 L 17.07 2.34 L 17.07 2.51 Z" stroke-width="0.02" /><circle cx="17" cy="2.08" r="0.16"/></g><g class="f0 s0"><circle cx="17" cy="2.08" r="0.12"/><circle cx="17.61" cy="1.01" r="0.04"/><circle cx="18.07" cy="1.46" r="0.04"/><circle cx="18.23" cy="2.08" r="0.04"/><circle cx="18.07" cy="2.7" r="0.04"/><circle cx="17.61" cy="3.15" r="0.04"/><circle cx="17" cy="3.32" r="0.04"/><circle cx="16.38" cy="3.15" r="0.04"/><circle cx="15.92" cy="2.7" r="0.04"/><circle cx="15.76" cy="2.08" r="0.04"/><circle cx="15.92" cy="1.46" r="0.04"/><circle cx="16.38" cy="1.01" r="0.04"/></g><circle class="f3 s3" cx="17" cy="0.85" r="0.06"/><g class="f2 s2"><circle cx="18.45" cy="3.54" r="0.36"/><circle cx="18.45" cy="3.54" r="0.25"/></g><circle class="f0 s0" cx="17" cy="5" r="0.95"/><g class="f1 s1"><path d="M 18.01 5 L 17.4 4.84 L 17.25 4.93 L 17 5 L 17.25 5.06 L 17.4 5.15 Z" stroke-width="0.02" /><circle cx="17" cy="5" r="0.16"/></g><g class="f0 s0"><circle cx="17" cy="5" r="0.12"/><circle cx="17.61" cy="3.92" r="0.04"/><circle cx="18.07" cy="4.38" r="0.04"/><circle cx="18.23" cy="5" r="0.04"/><circle cx="18.07" cy="5.61" r="0.04"/><circle cx="17.61" cy="6.07" r="0.04"/><circle cx="17" cy="6.23" r="0.04"/><circle cx="16.38" cy="6.07" r="0.04"/><circle cx="15.92" cy="5.61" r="0.04"/><circle cx="15.76" cy="5" r="0.04"/><circle cx="15.92" cy="4.38" r="0.04"/><circle cx="16.38" cy="3.92" r="0.04"/></g><circle class="f3 s3" cx="17" cy="3.76" r="0.06"/><circle class="f2 s2" cx="18.45" cy="6.45" r="0.36"/><g class="f0 s0"><circle cx="18.45" cy="6.45" r="0.25"/><circle cx="17" cy="7.91" r="0.95"/></g><g class="f1 s1"><path d="M 18.01 7.91 L 17.4 7.76 L 17.25 7.85 L 17 7.91 L 17.25 7.97 L 17.4 8.06 Z" stroke-width="0.02" /><circle cx="17" cy="7.91" r="0.16"/></g><g class="f0 s0"><circle cx="17" cy="7.91" r="0.12"/><circle cx="17.61" cy="6.84" r="0.04"/><circle cx="18.07" cy="7.29" r="0.04"/><circle cx="18.23" cy="7.91" r="0.04"/><circle cx="18.07" cy="8.53" r="0.04"/><circle cx="17.61" cy="8.98" r="0.04"/><circle cx="17" cy="9.14" r="0.04"/><circle cx="16.38" cy="8.98" r="0.04"/><circle cx="15.92" cy="8.53" r="0.04"/><circle cx="15.76" cy="7.91" r="0.04"/><circle cx="15.92" cy="7.29" r="0.04"/><circle cx="16.38" cy="6.84" r="0.04"/></g><circle class="f3 s3" cx="17" cy="6.67" r="0.06"/><circle class="f0 s0" cx="19.91" cy="2.08" r="0.95"/><g class="f1 s1"><path d="M 20.92 2.08 L 20.32 1.93 L 20.17 2.02 L 19.91 2.08 L 20.17 2.14 L 20.32 2.23 Z" stroke-width="0.02" /><circle cx="19.91" cy="2.08" r="0.16"/></g><g class="f0 s0"><circle cx="19.91" cy="2.08" r="0.12"/><circle cx="20.53" cy="1.01" r="0.04"/><circle cx="20.98" cy="1.46" r="0.04"/><circle cx="21.14" cy="2.08" r="0.04"/><circle cx="20.98" cy="2.7" r="0.04"/><circle cx="20.53" cy="3.15" r="0.04"/><circle cx="19.91" cy="3.32" r="0.04"/><circle cx="19.29" cy="3.15" r="0.04"/><circle cx="18.84" cy="2.7" r="0.04"/><circle cx="18.67" cy="2.08" r="0.04"/><circle cx="18.84" cy="1.46" r="0.04"/><circle cx="19.29" cy="1.01" r="0.04"/></g><circle class="f3 s3" cx="19.91" cy="0.85" r="0.06"/><circle class="f0 s0" cx="19.91" cy="5" r="0.95"/><g class="f1 s1"><path d="M 19.03 5.5 L 19.63 5.33 L 19.71 5.18 L 19.91 5 L 19.65 5.07 L 19.48 5.07 Z" stroke-width="0.02" /><circle cx="19.91" cy="5" r="0.16"/></g><g class="f0 s0"><circle cx="19.91" cy="5" r="0.12"/><circle cx="20.53" cy="3.92" r="0.04"/><circle cx="20.98" cy="4.38" r="0.04"/><circle cx="21.14" cy="5" r="0.04"/><circle cx="20.98" cy="5.61" r="0.04"/><circle cx="20.53" cy="6.07" r="0.04"/><circle cx="19.91" cy="6.23" r="0.04"/><circle cx="19.29" cy="6.07" r="0.04"/><circle cx="18.84" cy="5.61" r="0.04"/><circle cx="18.67" cy="5" r="0.04"/><circle cx="18.84" cy="4.38" r="0.04"/><circle cx="19.29" cy="3.92" r="0.04"/></g><circle class="f3 s3" cx="19.91" cy="3.76" r="0.06"/><circle class="f0 s0" cx="19.91" cy="7.91" r="0.95"/><g class="f1 s1"><path d="M 19.4 8.78 L 19.83 8.34 L 19.83 8.16 L 19.91 7.91 L 19.73 8.1 L 19.57 8.19 Z" stroke-width="0.02" /><circle cx="19.91" cy="7.91" r="0.16"/></g><g class="f0 s0"><circle cx="19.91" cy="7.91" r="0.12"/><circle cx="20.53" cy="6.84" r="0.04"/><circle cx="20.98" cy="7.29" r="0.04"/><circle cx="21.14" cy="7.91" r="0.04"/><circle cx="20.98" cy="8.53" r="0.04"/><circle cx="20.53" cy="8.98" r="0.04"/><circle cx="19.91" cy="9.14" r="0.04"/><circle cx="19.29" cy="8.98" r="0.04"/><circle cx="18.84" cy="8.53" r="0.04"/><circle cx="18.67" cy="7.91" r="0.04"/><circle cx="18.84" cy="7.29" r="0.04"/><circle cx="19.29" cy="6.84" r="0.04"/></g><circle class="f3 s3" cx="19.91" cy="6.67" r="0.06"/></svg>